<svg fill="#000000" height="200px" width="200px" version="1.1" id="Layer_1" xmlns="http://www.w3.org/2000/svg" xmlns:xlink="http://www.w3.org/1999/xlink" viewBox="-45.99 -45.99 551.89 551.89" xml:space="preserve" stroke="#000000" stroke-width="0.004599130000000001" transform="rotate(0)"><g id="SVGRepo_bgCarrier" stroke-width="0" transform="translate(0,0), scale(1)"><path transform="translate(-45.99, -45.99), scale(17.2465625)" d="M16,26.48971592541784C17.62742252189014,26.115599264222052,19.203293092885104,25.696597540765566,20.678929917426572,24.914956124899753C22.15063225114827,24.13539879972884,23.60394199170789,23.2709574845161,24.598495350833545,21.935112808604487C25.60891950918647,20.577951103841997,25.89212334612118,18.88083930844398,26.37805025229776,17.260123443614276C26.94675071142271,15.363332291027222,28.357556071910818,13.430340309563192,27.70942622300609,11.559200392908055C27.064196341196748,9.696432632231119,24.707512581215084,9.137313595643429,23.147141615332114,7.932544829686028C21.690777387449067,6.808080088945168,20.597888549213025,5.0244487247289635,18.791666897652608,4.6737621654468136C16.99129270480051,4.324210918197489,15.385776821584173,6.022275927847902,13.55239572413705,6.069679095094207C11.057767876617028,6.134179193430524,8.328149950961986,3.6118661533006877,6.253039450075285,4.997955894052529C4.302145298924931,6.301074145850106,5.6101905342979,9.558547795673785,4.9561526735329355,11.811621173051144C4.3638581891712045,13.851996836811722,2.1593358324009424,15.547473909454567,2.5865007547293946,17.62869368031104C3.0203406176971854,19.742434891252437,5.767932307233888,20.44393314957761,7.079580538127372,22.157320978391013C8.310290713445674,23.764980551682836,8.215893493049192,26.47681189354181,10.0371152399237,27.361327686470467C11.870672759650342,28.25183461470399,14.013449096733146,26.946390071946485,16,26.48971592541784" fill="#d1d1d1" strokewidth="0"></path></g><g id="SVGRepo_tracerCarrier" stroke-linecap="round" stroke-linejoin="round" stroke="#CCCCCC" stroke-width="1.8396520000000003"></g><g id="SVGRepo_iconCarrier"> <g id="XMLID_244_"> <g> <g> <path d="M407.311,136.794c-5.717-6.887-16.018-7.862-22.926-2.143c-8.73,7.228-36.772,30.448-46.111,38.18 c-3.82-10.241-8.805-23.773-12.357-34.107c-7.972-23.197-21.259-34.958-39.49-34.958h-61.061 c-18.232,0-31.518,11.762-39.491,34.959c-12.676,36.887-41.456,115.628-41.745,116.419c-3.09,8.451,1.256,17.807,9.708,20.897 c8.458,3.091,17.809-1.262,20.897-9.708c0.257-0.703,22.961-62.821,37.023-102.84l-25.782,137.369 c-1.174,6.061,3.498,11.663,9.612,11.663c4.187,0,9.3,0,15.044,0v127.836c0,10.798,8.753,19.552,19.552,19.552 c10.798,0,19.552-8.753,19.552-19.552V312.525c4.101,0,8.223,0,12.324,0v127.836c0,10.798,8.753,19.552,19.552,19.552 c10.798,0,19.552-8.753,19.552-19.552V312.525c5.746,0,10.859,0,15.044,0c6.145,0,10.784-5.608,9.612-11.663 c-19.527-100.659-25.824-137.715-25.824-137.715c4.851,13.432,10.778,29.223,15.846,42.58c0.017,0.044,0.04,0.083,0.057,0.126 c4.014,10.312,16.998,13.742,25.568,6.643l63.704-52.747c7.011-5.808,7.818-16.099,2.154-22.94 C407.321,136.804,407.315,136.799,407.311,136.794z"></path> <path d="M400.968,54.183c-8.773-3.821-18.383-3.052-26.159,1.242l-19.613-8.542c-1.538-2.898-4.6-4.659-7.878-4.533 c-3.279,0.127-6.195,2.119-7.505,5.127l-9.061,20.804c-1.31,3.008-0.782,6.501,1.358,8.987c2.14,2.487,5.515,3.529,8.685,2.681 l19.613,8.542c2.152,8.618,8.135,16.178,16.908,19.999c1.559,0.679,3.146,1.205,4.743,1.601l-0.409,9.272 c4.079-1.922,8.561-2.947,13.117-2.947c4.671,0,9.195,1.05,13.288,3.007l0.701-15.893c3.147-2.777,5.754-6.265,7.54-10.367 C422.827,78.166,415.965,60.714,400.968,54.183z M400.779,86.404c-2.826,6.489-10.386,9.321-16.706,6.569 c-6.427-2.799-9.368-10.279-6.569-16.706s10.279-9.368,16.706-6.569C400.526,72.449,403.607,79.912,400.779,86.404z"></path> <path d="M114.085,85.823c0,0,31.881,22.951,76.321,8.209c22.702-5.399,47.978-4.545,59.353-3.763 c1.996,0.338,4.045,0.523,6.137,0.523c20.172,0,36.525-16.353,36.525-36.525c0-11.169-5.019-21.161-12.918-27.861 c0,0-42.724-39.361-129.672-21.971c0,0-71.008,21.401-108.685,8.768c0,0,21.737,38.087,97.092,32.291 c0,0-43.957,18.839-73.906,11.11c0,0,44.803,37.678,95.1,20.771c5.916-1.989,11.368-3.796,16.441-5.433 C175.807,71.991,150.267,90.787,114.085,85.823z"></path> </g> </g> </g> </g></svg>